# Blender 3.5.1
# www.blender.org
mtllib axe.mtl
o Handle
v -0.371592 -0.229050 -0.253109
v -0.272621 -0.082761 -0.280810
v -1.828943 1.121796 0.078781
v -0.261078 -0.039229 -0.441262
v -1.822306 1.190892 -0.093394
v -0.368385 -0.164948 -0.419974
v -1.924708 1.039609 -0.060383
v -1.146547 0.437331 -0.240178
v -1.267767 0.720934 -0.197450
v -1.050782 0.519517 -0.101014
v 0.130065 -0.639171 -0.356114
v 0.228486 -0.493909 -0.382828
v 0.191221 -0.409361 -0.533917
v 0.132722 -0.576096 -0.521992
v 0.311328 -0.842426 -0.360811
v 0.562327 -0.763878 -0.453121
v 0.568768 -0.749673 -0.592744
v 0.466562 -0.846065 -0.592285
v 0.454485 -1.052636 -0.335178
v 0.646172 -0.923936 -0.416292
v 0.815749 -0.949687 -0.644578
v 0.550408 -1.006123 -0.555456
v 0.540125 -1.130526 -0.348111
v 0.757125 -1.077109 -0.402184
v 0.832674 -1.052860 -0.595293
v 0.661361 -1.159295 -0.541348
v 0.709243 -1.118202 -0.471766
v -2.401332 1.566849 0.209829
v -2.338942 1.712442 -0.045889
v -2.497097 1.484662 0.070665
v -2.697741 1.829520 0.258672
v -2.506483 1.919636 -0.052961
v -2.793505 1.747334 0.119508
v -2.606895 1.924270 0.140201
v -2.669076 2.042688 -0.013745
v -2.702660 1.842083 0.001037
v -0.286899 -0.112161 -0.253621
v -0.351512 -0.211817 -0.223929
v -1.847015 1.085270 0.112788
v -1.911267 0.987744 0.140969
v -1.097972 0.400989 -0.044890
v -1.080177 0.471789 -0.052600
v 0.215577 -0.520517 -0.358231
v 0.150145 -0.621937 -0.326934
v 0.456252 -0.783439 -0.368575
v 0.331408 -0.825193 -0.331631
v 0.581638 -0.963251 -0.348666
v 0.474565 -1.035403 -0.305998
v 0.560205 -1.113293 -0.318931
v 0.710357 -1.080517 -0.367988
v -2.487111 1.446455 0.266333
v -2.417799 1.539431 0.237353
v -2.797359 1.783073 0.354654
v -2.842586 1.731698 0.342493
v -0.235844 -0.017572 -0.404593
v -0.254971 -0.057625 -0.307800
v -1.803272 1.173680 0.030473
v -1.797072 1.212548 -0.056724
v -1.083579 0.566551 -0.106223
v -1.242533 0.742590 -0.160781
v 0.216455 -0.387705 -0.497248
v 0.231732 -0.455503 -0.407744
v 0.567599 -0.758511 -0.459920
v 0.594002 -0.728017 -0.556074
v 0.840982 -0.928031 -0.607908
v 0.760999 -0.915835 -0.500094
v 0.777288 -1.066435 -0.422362
v 0.857908 -1.031204 -0.558624
v -2.324962 1.696141 0.080919
v -2.313708 1.734098 -0.009219
v -2.514367 1.926707 0.075089
v -2.481249 1.941293 -0.016292
v -2.643843 2.064344 0.022925
v -2.613862 2.001990 0.099096
v -0.357813 -0.149891 -0.436141
v -0.282475 -0.057591 -0.472355
v -1.843703 1.172529 -0.124487
v -1.903924 1.081615 -0.099493
v -1.289163 0.702571 -0.228543
v -1.156249 0.451245 -0.241719
v 0.169825 -0.427724 -0.565011
v 0.134718 -0.552470 -0.537319
v 0.463524 -0.849157 -0.588369
v 0.547371 -0.768036 -0.623837
v 0.647846 -0.999249 -0.626568
v 0.794352 -0.968050 -0.675671
v 0.811277 -1.071223 -0.626386
v 0.664027 -1.157884 -0.544016
v -2.360339 1.694079 -0.076982
v -2.426471 1.604229 -0.048550
v -2.527880 1.901274 -0.084054
v -2.619579 1.838756 -0.054169
v -2.708385 1.905946 -0.032739
v -2.690473 2.024325 -0.044838
v -0.385075 -0.240621 -0.272702
v -0.373929 -0.176362 -0.409418
v -1.934131 1.020564 -0.042651
v -1.953400 0.955494 0.099807
v -1.157368 0.356468 -0.116084
v -1.165767 0.406122 -0.208521
v 0.297846 -0.853997 -0.380403
v 0.383515 -0.861379 -0.526093
v 0.116583 -0.650742 -0.375706
v 0.128742 -0.584299 -0.514410
v 0.504685 -1.033978 -0.507542
v 0.441003 -1.064207 -0.354771
v 0.643626 -1.160588 -0.528381
v 0.526643 -1.142097 -0.367703
v -2.503714 1.473645 0.081724
v -2.520673 1.417652 0.217560
v -2.876148 1.702893 0.293720
v -2.890887 1.701868 0.213372
vn -0.3944 -0.6464 0.6531
vn 0.4121 0.6317 -0.6566
vn -0.5098 -0.4375 -0.7408
vn 0.5098 0.4375 0.7408
vn 0.3553 0.6772 -0.6444
vn 0.3949 0.6460 -0.6532
vn 0.4969 0.5532 -0.6686
vn -0.6531 -0.3638 0.6642
vn 0.3897 0.6502 -0.6522
vn 0.8478 -0.1089 -0.5191
vn -0.5452 -0.5018 0.6715
vn 0.4424 0.6052 -0.6618
vn 0.5494 -0.8281 0.1110
vn 0.3013 -0.8973 0.3226
vn -0.4468 -0.6012 0.6625
vn 0.5874 0.4521 -0.6712
vn 0.5495 -0.8281 0.1110
vn -0.3452 -0.6156 0.7084
vn -0.3852 -0.6539 0.6512
vn 0.3564 0.6763 -0.6447
vn 0.2896 0.0694 0.9546
vn 0.2693 0.0735 0.9603
vn 0.2834 0.1059 0.9532
vn 0.2190 0.1672 0.9613
vn 0.2023 0.2499 0.9469
vn 0.2779 0.1484 0.9491
vn 0.2802 0.0903 0.9557
vn 0.2154 -0.0573 0.9749
vn 0.6111 0.6796 0.4058
vn 0.6432 0.6841 0.3440
vn 0.6281 0.6677 0.3995
vn 0.6282 0.6743 0.3882
vn 0.6503 0.6546 0.3855
vn 0.7606 0.3674 0.5352
vn 0.6812 0.6450 0.3465
vn 0.7211 0.5983 0.3494
vn 0.6184 0.7097 0.3375
vn -0.3161 -0.1161 -0.9416
vn -0.2561 -0.0876 -0.9627
vn -0.2708 -0.1359 -0.9530
vn -0.2979 -0.1270 -0.9461
vn -0.2921 -0.1157 -0.9494
vn -0.2019 -0.4607 -0.8643
vn -0.2223 -0.1302 -0.9662
vn -0.1847 -0.1786 -0.9664
vn -0.2744 -0.0565 -0.9600
vn -0.6245 -0.6900 -0.3659
vn -0.6130 -0.7045 -0.3576
vn -0.6308 -0.6790 -0.3756
vn -0.6948 -0.6182 -0.3674
vn -0.6495 -0.6475 -0.3986
vn -0.7290 -0.5504 -0.4069
vn -0.6281 -0.6803 -0.3777
vn -0.5947 -0.7777 -0.2038
vn -0.2967 -0.6421 0.7069
vn -0.8567 0.1791 0.4838
vn -0.6901 0.7221 0.0484
vn -0.5238 0.8409 -0.1364
vn -0.7561 0.6405 0.1349
vn -0.3631 -0.6429 0.6744
vt 0.375000 0.125000
vt 0.375000 0.375000
vt 0.625000 0.375000
vt 0.375000 0.625000
vt 0.625000 0.625000
vt 0.375000 0.875000
vt 0.625000 0.875000
vt 0.500000 0.875000
vt 0.500000 0.625000
vt 0.500000 0.375000
vt 0.375000 0.125000
vt 0.375000 0.375000
vt 0.375000 0.625000
vt 0.375000 0.875000
vt 0.375000 0.125000
vt 0.375000 0.375000
vt 0.375000 0.625000
vt 0.375000 0.875000
vt 0.375000 0.125000
vt 0.375000 0.375000
vt 0.375000 0.625000
vt 0.375000 0.875000
vt 0.375000 0.125000
vt 0.125000 0.625000
vt 0.250000 0.500000
vt 0.375000 0.375000
vt 0.375000 0.625000
vt 0.375000 0.875000
vt 0.250000 0.750000
vt 0.250000 0.625000
vt 0.625000 0.375000
vt 0.625000 0.625000
vt 0.625000 0.875000
vt 0.625000 0.375000
vt 0.750000 0.500000
vt 0.625000 0.625000
vt 0.750000 0.750000
vt 0.625000 0.875000
vt 0.750000 0.500000
vt 0.625000 0.625000
vt 0.750000 0.750000
vt 0.375000 0.340065
vt 0.375000 0.177420
vt 0.625000 0.333565
vt 0.625000 0.177416
vt 0.625000 0.467753
vt 0.500220 0.250000
vt 0.500000 0.324158
vt 0.375000 0.343071
vt 0.375000 0.177420
vt 0.375000 0.309720
vt 0.375000 0.177420
vt 0.375000 0.318905
vt 0.375000 0.177420
vt 0.125000 0.572580
vt 0.375000 0.177420
vt 0.215432 0.500000
vt 0.375000 0.340432
vt 0.625000 0.467739
vt 0.625000 0.339497
vt 0.644824 0.363870
vt 0.625000 0.467739
vt 0.375000 0.559125
vt 0.375000 0.412127
vt 0.625000 0.433858
vt 0.625000 0.559125
vt 0.500000 0.399243
vt 0.500000 0.559125
vt 0.375000 0.559125
vt 0.375000 0.413210
vt 0.375000 0.387133
vt 0.375000 0.559125
vt 0.375000 0.559125
vt 0.375000 0.441005
vt 0.270419 0.500000
vt 0.375000 0.395419
vt 0.375000 0.559125
vt 0.625000 0.461570
vt 0.625000 0.559125
vt 0.625000 0.468770
vt 0.656230 0.500000
vt 0.625000 0.559125
vt 0.625000 0.559125
vt 0.689095 0.500000
vt 0.375000 0.852761
vt 0.375000 0.680857
vt 0.625000 0.680857
vt 0.625000 0.827348
vt 0.500000 0.680857
vt 0.500000 0.867828
vt 0.375000 0.680857
vt 0.375000 0.851495
vt 0.375000 0.880727
vt 0.375000 0.877746
vt 0.375000 0.680857
vt 0.375000 0.818990
vt 0.375000 0.680857
vt 0.375000 0.680857
vt 0.252700 0.750000
vt 0.375000 0.872300
vt 0.625000 0.680857
vt 0.625000 0.794941
vt 0.625000 0.680857
vt 0.625000 0.786521
vt 0.661521 0.750000
vt 0.699955 0.750000
vt 0.625000 0.680857
vt 0.375000 0.089803
vt 0.375000 1.000000
vt 0.375000 0.888563
vt 0.375000 0.000000
vt 0.625000 0.000000
vt 0.625000 0.896605
vt 0.625000 0.731558
vt 0.626107 0.090818
vt 0.500805 0.016062
vt 0.500000 1.000000
vt 0.509907 0.000000
vt 0.500000 0.908245
vt 0.375000 0.089803
vt 0.375000 1.000000
vt 0.375000 0.926108
vt 0.375000 0.089803
vt 0.375000 1.000000
vt 0.375000 0.000000
vt 0.375000 0.884843
vt 0.375000 0.914744
vt 0.375000 0.089803
vt 0.375000 1.000000
vt 0.236892 0.750000
vt 0.375000 0.888108
vt 0.125000 0.660197
vt 0.375000 0.089803
vt 0.375000 1.000000
vt 0.625000 0.889266
vt 0.625000 0.730592
vt 0.625000 0.730592
vt 0.625000 0.903812
s 0
usemtl Handle
f 1/1/1 11/11/1 44/50/1 38/43/1
f 60/68/2 9/9/2 5/5/2 58/66/2
f 80/90/3 8/8/3 7/7/3 78/88/3
f 97/113/3 109/135/3 30/33/3 7/7/3
f 8/8/3 100/119/3 97/113/3 7/7/3
f 82/92/3 83/93/3 18/18/3 14/14/3
f 42/48/4 10/10/4 3/3/4 39/44/4
f 6/6/3 96/110/3 100/119/3 8/8/3
f 55/63/5 4/4/5 9/9/5 60/68/5
f 6/6/3 14/14/3 104/126/3 96/110/3
f 75/85/3 82/92/3 14/14/3 6/6/3
f 7/7/3 30/33/3 90/102/3 78/88/3
f 4/4/6 13/13/6 81/91/6 76/86/6
f 55/63/6 61/69/6 13/13/6 4/4/6
f 5/5/7 29/32/7 70/79/7 58/66/7
f 2/2/4 12/12/4 62/70/4 56/64/4
f 37/42/4 43/49/4 12/12/4 2/2/4
f 3/3/4 28/31/4 52/60/4 39/44/4
f 18/18/3 22/22/3 105/127/3 102/122/3
f 12/12/4 16/16/4 63/71/4 62/70/4
f 45/51/4 47/53/4 20/20/4 16/16/4
f 83/94/3 85/96/3 22/22/3 18/18/3
f 75/85/3 6/6/3 8/8/3 80/90/3
f 57/65/4 69/78/4 28/31/4 3/3/4
f 95/108/1 103/123/1 11/11/1 1/1/1
f 77/87/7 89/101/7 29/32/7 5/5/7
f 85/96/3 88/100/3 26/28/3 22/22/3
f 15/15/8 19/19/8 48/54/8 46/52/8
f 17/17/9 21/21/9 86/97/9 84/95/9
f 65/73/10 68/77/10 25/27/10 21/21/10
f 103/123/11 101/120/11 15/15/11 11/11/11
f 64/72/9 65/73/9 21/21/9 17/17/9
f 13/13/12 17/17/12 84/95/12 81/91/12
f 11/11/11 15/15/11 46/52/11 44/50/11
f 21/21/10 25/27/10 87/98/10 86/97/10
f 24/25/13 27/30/13 25/27/13 68/77/13 67/75/13
f 23/24/14 108/132/14 107/130/14 26/29/14 27/30/14
f 22/22/3 26/28/3 107/131/3 105/127/3
f 47/53/4 50/58/4 24/26/4 20/20/4
f 16/16/4 20/20/4 66/74/4 63/71/4
f 14/14/3 18/18/3 102/122/3 104/126/3
f 106/128/15 108/133/15 23/23/15 19/19/15
f 89/101/16 91/103/16 32/36/16 29/32/16
f 109/135/3 112/138/3 33/38/3 30/33/3
f 28/31/4 31/34/4 53/61/4 52/60/4
f 69/78/4 71/80/4 31/34/4 28/31/4
f 19/19/15 23/23/15 49/56/15 48/54/15
f 27/30/17 26/29/17 88/99/17 87/98/17 25/27/17
f 49/55/14 23/24/14 27/30/14 24/25/14 50/57/14
f 20/20/4 24/26/4 67/76/4 66/74/4
f 30/33/3 33/38/3 92/104/3 90/102/3
f 61/69/12 64/72/12 17/17/12 13/13/12
f 110/136/18 98/114/18 40/46/18 51/59/18
f 101/120/8 106/128/8 19/19/8 15/15/8
f 9/9/2 79/89/2 77/87/2 5/5/2
f 10/10/4 59/67/4 57/65/4 3/3/4
f 43/49/4 45/51/4 16/16/4 12/12/4
f 111/137/19 110/136/19 51/59/19 54/62/19
f 71/81/4 74/84/4 34/39/4 31/35/4
f 29/32/16 32/36/16 72/82/16 70/79/16
f 91/103/20 94/107/20 35/40/20 32/36/20
f 32/36/20 35/40/20 73/83/20 72/82/20
f 33/37/3 36/41/3 93/106/3 92/105/3
f 42/48/21 41/47/21 38/43/21 37/42/21
f 39/44/22 40/45/22 41/47/22 42/48/22
f 44/50/23 43/49/23 37/42/23 38/43/23
f 43/49/24 44/50/24 46/52/24 45/51/24
f 48/54/25 47/53/25 45/51/25 46/52/25
f 49/56/26 50/58/26 47/53/26 48/54/26
f 40/46/27 39/44/27 52/60/27 51/59/27
f 51/59/28 52/60/28 53/61/28 54/62/28
f 37/42/4 2/2/4 10/10/4 42/48/4
f 60/68/29 59/67/29 56/64/29 55/63/29
f 58/66/30 57/65/30 59/67/30 60/68/30
f 55/63/31 56/64/31 62/70/31 61/69/31
f 64/72/32 63/71/32 66/74/32 65/73/32
f 63/71/33 64/72/33 61/69/33 62/70/33
f 65/73/34 66/74/34 67/76/34 68/77/34
f 57/65/35 58/66/35 70/79/35 69/78/35
f 69/78/36 70/79/36 72/82/36 71/80/36
f 73/83/37 74/84/37 71/81/37 72/82/37
f 2/2/4 56/64/4 59/67/4 10/10/4
f 80/90/38 79/89/38 76/86/38 75/85/38
f 78/88/39 77/87/39 79/89/39 80/90/39
f 82/92/40 81/91/40 84/95/40 83/93/40
f 75/85/41 76/86/41 81/91/41 82/92/41
f 86/97/42 85/96/42 83/94/42 84/95/42
f 87/98/43 88/100/43 85/96/43 86/97/43
f 77/87/44 78/88/44 90/102/44 89/101/44
f 92/104/45 91/103/45 89/101/45 90/102/45
f 91/103/46 92/105/46 93/106/46 94/107/46
f 4/4/5 76/86/5 79/89/5 9/9/5
f 100/118/47 99/116/47 98/115/47 97/112/47
f 96/110/48 95/109/48 99/117/48 100/119/48
f 104/125/49 103/123/49 95/108/49 96/111/49
f 102/122/50 101/121/50 103/124/50 104/126/50
f 107/131/51 108/134/51 106/129/51 105/127/51
f 105/127/52 106/129/52 101/121/52 102/122/52
f 110/136/53 109/135/53 97/113/53 98/114/53
f 109/135/54 110/136/54 111/137/54 112/138/54
f 41/47/55 40/46/55 98/115/55 99/116/55
f 74/84/56 73/83/56 35/40/56 94/107/56 93/106/56
f 34/39/56 74/84/56 93/106/56 36/41/56
f 31/35/57 34/39/57 36/41/57 33/37/57
f 53/61/58 31/35/58 33/38/58 112/138/58
f 53/61/59 112/138/59 111/137/59 54/62/59
f 38/43/60 41/47/60 99/117/60 95/109/60
o Blade
v -2.817945 1.761967 0.391923
v -3.030925 1.569350 0.377362
v -2.921743 1.672885 0.241085
v -2.927126 1.658431 0.528201
v -2.878306 1.734723 0.449550
v -2.982104 1.645641 0.298711
v -2.932588 1.681220 0.243624
v -2.828789 1.770302 0.394463
v -3.038610 1.499959 0.450415
v -2.954073 1.572510 0.573263
v -3.015329 1.453875 0.503987
v -2.958229 1.502880 0.586965
v -2.977625 1.360118 0.533411
v -2.920524 1.409122 0.616389
v -2.910432 1.279992 0.577649
v -2.889825 1.297678 0.607595
v -2.899850 1.190628 0.648266
v -3.262716 1.292710 0.837682
v -2.687807 2.149728 -0.201509
v -2.584008 2.238809 -0.050670
v -2.734471 2.075271 -0.125424
v -2.630673 2.164352 0.025414
v -2.738328 2.031841 -0.097122
v -2.634530 2.120923 0.053717
v -2.720611 1.996349 -0.088353
v -2.616812 2.085431 0.062485
v -2.705840 1.837909 -0.004946
v -2.602042 1.926990 0.145893
v -2.797327 1.743835 0.113567
v -2.693528 1.832916 0.264406
v -2.612053 2.246071 -0.086974
v -2.584008 2.238809 -0.050670
v -2.687807 2.149728 -0.201509
v -2.672543 2.194158 -0.174878
v -3.481700 1.612472 0.799531
v -3.365695 1.806398 0.521987
v -3.383498 1.839676 0.541435
v -3.260513 2.041512 0.282298
v -3.266038 2.042563 0.286183
v -3.125464 2.188077 0.076613
v -3.143516 2.220954 0.096449
v -3.031289 2.334326 -0.074599
v -3.049479 2.366997 -0.054551
v -2.952059 2.433676 -0.123984
v -2.966466 2.469886 -0.098608
v -3.040057 2.380493 -0.069017
v -3.012682 2.361148 -0.102808
v -3.343953 1.873614 0.598901
v -3.303925 1.856477 0.609968
v -3.176665 2.114022 0.403522
v -3.182827 2.113977 0.407105
v -3.019648 2.276109 0.227734
v -3.060251 2.292414 0.217448
v -2.925465 2.422354 0.076586
v -2.966183 2.438482 0.066492
v -2.949665 2.462137 0.041168
v -2.900270 2.458743 0.037076
v -2.934607 2.497228 -0.052311
v -2.889984 2.484231 -0.036370
v -3.481700 1.612472 0.799531
v -3.456007 1.717539 0.717935
vn 0.8535 -0.1492 -0.4992
vn 0.7580 -0.6357 -0.1462
vn -0.3640 -0.6705 0.6465
vn 0.7822 0.1229 -0.6108
vn 0.6140 -0.7881 0.0429
vn 0.8414 -0.4333 -0.3231
vn 0.7224 0.2499 -0.6447
vn 0.8603 -0.2495 -0.4446
vn -0.5538 -0.4763 -0.6830
vn -0.7571 0.6371 0.1447
vn -0.7451 0.6550 0.1259
vn 0.6241 0.7706 0.1290
vn -0.7611 0.6308 0.1512
vn 0.7967 0.0850 -0.5984
vn 0.7609 -0.6311 -0.1509
vn 0.8571 -0.3325 -0.3934
vn 0.7416 0.2130 -0.6361
vn 0.8564 -0.1758 -0.4855
vn 0.6873 -0.7249 -0.0449
vn 0.5650 -0.8196 0.0952
vn 0.4176 0.6270 -0.6576
vn -0.1405 0.1369 -0.9806
vn -0.8658 -0.1631 -0.4730
vn -0.7476 0.6514 0.1297
vn -0.8205 -0.1915 -0.5386
vn -0.7842 -0.1193 -0.6089
vn -0.8050 -0.0882 -0.5866
vn -0.6280 0.2947 -0.7202
vn -0.7973 -0.0791 -0.5984
vn -0.7522 0.6445 0.1370
vn 0.0885 0.5904 0.8022
vn 0.1300 0.6738 0.7274
vn 0.0928 0.6860 0.7216
vn 0.1171 0.9277 0.3544
vn 0.1034 0.6957 0.7108
vn 0.0124 0.6051 0.7961
vn 0.4573 0.3972 0.7957
vt 0.000000 0.000000
vt 0.000000 0.000000
vt 0.000000 0.000000
vt 0.000000 0.000000
vt 0.000000 0.000000
vt 0.000000 0.000000
vt 0.000000 0.000000
vt 0.000000 0.000000
vt 0.000000 0.000000
vt 0.000000 0.000000
vt 0.000000 0.000000
vt 0.000000 0.000000
vt 0.000000 0.000000
vt 0.000000 0.000000
vt 0.000000 0.000000
vt 0.000000 0.000000
vt 0.000000 0.000000
vt 0.000000 0.000000
vt 0.000000 0.000000
vt 0.000000 0.000000
vt 0.000000 0.000000
vt 0.000000 0.000000
vt 0.000000 0.000000
vt 0.000000 0.000000
vt 0.000000 0.000000
vt 0.000000 0.000000
vt 0.000000 0.000000
vt 0.000000 0.000000
vt 0.000000 0.000000
vt 0.000000 0.000000
vt 0.000000 0.000000
vt 0.000000 0.000000
vt 0.000000 0.000000
vt 0.000000 0.000000
vt 0.000000 0.000000
vt 0.000000 0.000000
vt 0.000000 0.000000
vt 0.000000 0.000000
vt 0.000000 0.000000
vt 0.000000 0.000000
vt 0.000000 0.000000
vt 0.000000 0.000000
vt 0.000000 0.000000
vt 0.000000 0.000000
vt 0.000000 0.000000
vt 0.000000 0.000000
vt 0.000000 0.000000
vt 0.000000 0.000000
vt 0.000000 0.000000
vt 0.000000 0.000000
vt 0.000000 0.000000
vt 0.000000 0.000000
vt 0.000000 0.000000
vt 0.000000 0.000000
vt 0.000000 0.000000
vt 0.000000 0.000000
vt 0.000000 0.000000
vt 0.000000 0.000000
vt 0.000000 0.000000
vt 0.000000 0.000000
vt 0.000000 0.000000
s 0
usemtl Blade
f 121/147/61 122/148/61 124/150/61 123/149/61
f 118/144/62 117/143/62 116/142/62 114/140/62
f 115/141/63 113/139/63 120/146/63 119/145/63
f 123/149/64 124/150/64 126/152/64 125/151/64
f 119/145/65 120/146/65 117/143/65 118/144/65
f 114/140/66 116/142/66 122/148/66 121/147/66
f 125/151/67 126/152/67 128/154/67 127/153/67
f 127/153/68 128/154/68 129/155/68
f 118/144/69 114/140/69 121/147/69 123/149/69 125/151/69 127/153/69 129/155/69 130/156/69 147/173/69 148/174/69 150/176/69 152/178/69 154/180/69 159/185/69 145/171/69 131/157/69 133/159/69 135/161/69 137/163/69 139/165/69 141/167/69 115/141/69 119/145/69
f 153/179/70 165/191/70 167/193/70 155/181/70
f 155/181/71 167/193/71 168/194/71 170/196/71 157/183/71 158/184/71
f 169/195/72 144/170/72 143/169/72 171/197/72
f 149/175/73 160/186/73 163/189/73 151/177/73
f 145/171/74 146/172/74 143/169/74 144/170/74 132/158/74 131/157/74
f 131/157/75 132/158/75 134/160/75 133/159/75
f 133/159/76 134/160/76 136/162/76 135/161/76
f 135/161/77 136/162/77 138/164/77 137/163/77
f 137/163/78 138/164/78 140/166/78 139/165/78
f 139/165/79 140/166/79 142/168/79 141/167/79
f 141/167/80 142/168/80 113/139/80 115/141/80
f 156/182/81 157/183/81 170/196/81 171/197/81 143/169/81 146/172/81
f 145/171/82 159/185/82 156/182/82 146/172/82
f 148/174/83 147/173/83 172/198/83 173/199/83 149/175/83
f 151/177/84 163/189/84 165/191/84 153/179/84
f 150/176/85 148/174/85 149/175/85 151/177/85
f 152/178/86 150/176/86 151/177/86 153/179/86
f 154/180/87 152/178/87 153/179/87 155/181/87
f 158/184/88 157/183/88 156/182/88 159/185/88
f 155/181/89 158/184/89 159/185/89 154/180/89
f 173/199/90 160/186/90 149/175/90
f 161/187/91 162/188/91 163/189/91 160/186/91
f 162/188/92 164/190/92 165/191/92 163/189/92
f 164/190/93 166/192/93 167/193/93 165/191/93
f 170/196/94 168/194/94 169/195/94 171/197/94
f 166/192/95 169/195/95 168/194/95 167/193/95
f 160/186/96 173/199/96 172/198/96 161/187/96
f 116/142/97 117/143/97 120/146/97 113/139/97 142/168/97 140/166/97 138/164/97 136/162/97 134/160/97 132/158/97 144/170/97 169/195/97 166/192/97 164/190/97 162/188/97 161/187/97 172/198/97 147/173/97 130/156/97 129/155/97 128/154/97 126/152/97 124/150/97 122/148/97
